<svg width="1077" height="1083" viewBox="0 0 1077 1083" fill="none" xmlns="http://www.w3.org/2000/svg">
<g opacity="0.8" filter="url(#filter0_f_128_437)">
<path fill-rule="evenodd" clip-rule="evenodd" d="M428.189 794.14C377.895 775.08 313.67 784.473 277.512 744.629C241.381 704.815 251.698 642.888 242.78 589.83C234.699 541.759 226.932 495.644 227.467 446.895C228.147 384.833 196.644 301.972 246.343 264.839C299.261 225.3 374.148 297.392 439.555 288.43C492.91 281.119 528.538 220.803 582.351 218.8C640.759 216.627 697.654 242.173 744.538 277.082C795.206 314.808 858.257 361.227 858.562 424.462C858.884 491.183 765.377 521.982 746.029 585.843C727.685 646.394 783.573 716.764 753.194 772.257C723.159 827.12 655.875 860.197 593.538 864.394C532.746 868.487 485.158 815.73 428.189 794.14Z" fill="url(#paint0_linear_128_437)"/>
</g>
<defs>
<filter id="filter0_f_128_437" x="0.243164" y="0.670898" width="1076.32" height="1081.95" filterUnits="userSpaceOnUse" color-interpolation-filters="sRGB">
<feFlood flood-opacity="0" result="BackgroundImageFix"/>
<feBlend mode="normal" in="SourceGraphic" in2="BackgroundImageFix" result="shape"/>
<feGaussianBlur stdDeviation="109" result="effect1_foregroundBlur_128_437"/>
</filter>
<linearGradient id="paint0_linear_128_437" x1="1095.32" y1="672.509" x2="671.128" y2="-81.0718" gradientUnits="userSpaceOnUse">
<stop stop-color="#FDBE00"/>
<stop offset="0.565" stop-color="#F58ED2"/>
<stop offset="1" stop-color="#B4187F"/>
</linearGradient>
</defs>
</svg>
